<?xml version="1.0" encoding="utf-8"?>
<!-- Generator: Adobe Illustrator 15.0.0, SVG Export Plug-In . SVG Version: 6.00 Build 0)  -->
<!DOCTYPE svg PUBLIC "-//W3C//DTD SVG 1.1//EN" "http://www.w3.org/Graphics/SVG/1.1/DTD/svg11.dtd">
<svg version="1.1" id="Layer_1" xmlns="http://www.w3.org/2000/svg" xmlns:xlink="http://www.w3.org/1999/xlink" x="0px" y="0px"
	 width="64px" height="64px" viewBox="0 0 64 64" enable-background="new 0 0 64 64" xml:space="preserve">
<title>user_chat_2</title>
<path id="user_chat_2" d="M35,32c-0.145,0.001-0.288-0.03-0.42-0.09c-0.354-0.164-0.581-0.52-0.58-0.91v-5h-4c-2.209,0-4-1.791-4-4
	V8c0-2.209,1.791-4,4-4h26c2.209,0,4,1.791,4,4v14c0,2.209-1.791,4-4,4H42.37l-6.72,5.76C35.469,31.915,35.238,32,35,32z M30,6
	c-1.104,0-2,0.896-2,2v14c0,1.104,0.896,2,2,2h5c0.553,0,1,0.448,1,1v3.83l5.35-4.58c0.18-0.159,0.41-0.247,0.65-0.25h14
	c1.104,0,2-0.896,2-2V8c0-1.104-0.896-2-2-2H30z M27,38c-6.075-0.002-10.998-4.929-10.996-11.004
	c0.001-4.371,2.591-8.326,6.596-10.076c0.494-0.248,1.095-0.048,1.342,0.446s0.048,1.094-0.446,1.342
	c-0.031,0.016-0.063,0.03-0.097,0.042c-4.546,2.009-6.604,7.323-4.595,11.869c2.009,4.547,7.323,6.604,11.869,4.596
	c0.611-0.27,1.19-0.607,1.726-1.005c0.442-0.331,1.069-0.241,1.4,0.201c0.331,0.441,0.241,1.067-0.2,1.399
	C31.698,37.24,29.38,38.01,27,38z M47,58c-0.553,0-1-0.447-1-1c0-10.493-8.506-19-19-19C16.506,38,8,46.507,8,57
	c0,0.553-0.448,1-1,1s-1-0.447-1-1c0-11.598,9.402-21,21-21c11.598,0,21,9.402,21,21C48,57.553,47.553,58,47,58z"/>
</svg>
